<?xml version="1.0" encoding="utf-8"?>
<!-- Generator: Adobe Illustrator 16.0.0, SVG Export Plug-In . SVG Version: 6.00 Build 0)  -->
<!DOCTYPE svg PUBLIC "-//W3C//DTD SVG 1.1//EN" "http://www.w3.org/Graphics/SVG/1.1/DTD/svg11.dtd">
<svg version="1.1" id="Layer_1" xmlns="http://www.w3.org/2000/svg" xmlns:xlink="http://www.w3.org/1999/xlink" x="0px" y="0px"
	 width="383.889px" height="45.425px" viewBox="0 0 383.889 45.425" enable-background="new 0 0 383.889 45.425"
	 xml:space="preserve">
<g>
	<g>
		<g>
			<polygon fill="#D31243" points="125.138,9.435 125.138,2.645 96.812,2.645 96.812,43.39 125.138,43.39 125.138,36.596 
				103.601,36.596 103.601,26.414 124.099,26.414 124.099,19.623 103.601,19.623 103.601,9.435 			"/>
			<polygon fill="#D31243" points="146.156,43.39 146.156,2.646 152.948,2.646 152.948,36.596 172.539,36.596 172.539,43.39 			"/>
			<polygon fill="#D31243" points="178.074,43.39 178.074,2.646 184.866,2.646 184.866,36.596 204.455,36.596 204.455,43.39 			"/>
			<rect x="132.265" y="2.646" fill="#D31243" width="6.789" height="40.744"/>
			<path fill="#D31243" d="M12.017,12.995c-2.615,2.626-4.223,6.213-4.225,10.208c0.002,3.998,1.608,7.582,4.225,10.203
				c2.624,2.617,6.211,4.229,10.208,4.229c3.993,0,7.579-1.61,10.202-4.229c2.618-2.621,4.225-6.205,4.225-10.203
				c0-3.994-1.605-7.581-4.225-10.208c-2.623-2.613-6.209-4.218-10.202-4.219C18.228,8.777,14.64,10.382,12.017,12.995 M1,23.203
				C1.003,11.481,10.5,1.984,22.225,1.981c11.721,0.003,21.217,9.5,21.221,21.222c-0.003,11.72-9.5,21.218-21.221,21.222
				C10.5,44.421,1.003,34.923,1,23.203"/>
			<path fill="#D31243" d="M64.435,19.623V9.435h13.679c2.812,0.002,5.093,2.277,5.097,5.095c-0.004,2.807-2.283,5.084-5.097,5.092
				L64.435,19.623L64.435,19.623z M81.523,25.91c4.9-1.473,8.478-6,8.478-11.377c0-6.567-5.318-11.883-11.887-11.884H57.643V43.39
				h6.792V26.414h9.458L84.139,43.39h7.92L81.523,25.91z"/>
			<path fill="#D31243" d="M52.831,6.98c0,2.759-2.238,4.999-4.997,4.999c-2.765,0-5.001-2.24-5.001-4.999c0-2.76,2.237-5,5.001-5
				C50.593,1.981,52.831,4.22,52.831,6.98"/>
			<polygon fill="#D31243" points="234.731,2.646 226.479,2.646 216.027,17.771 205.574,2.646 197.321,2.646 212.623,24.798 
				212.623,43.39 219.418,43.39 219.418,24.812 			"/>
			<g>
				<path fill="#D31243" d="M243.347,11.023c-2.323,0-4.203-1.883-4.203-4.201c0-2.323,1.88-4.207,4.203-4.207
					c2.316,0,4.201,1.884,4.201,4.207C247.548,9.14,245.663,11.023,243.347,11.023 M243.347,1.816c-2.767,0-5.008,2.241-5.008,5.006
					c0,2.762,2.241,5.003,5.008,5.003c2.759,0,5.002-2.241,5.002-5.003C248.349,4.058,246.106,1.816,243.347,1.816"/>
				<path fill="#D31243" d="M242.133,5.084h1.973c0.354,0,0.637,0.282,0.64,0.638c-0.003,0.353-0.283,0.638-0.64,0.638h-1.973V5.084
					z M245.591,5.722c0-0.824-0.662-1.488-1.485-1.488h-2.814v5.1h0.844V7.208h1.432l1.022,2.125h0.943l-1.047-2.174
					C245.124,6.994,245.591,6.413,245.591,5.722"/>
			</g>
		</g>
	</g>
	<g enable-background="new    ">
		<path fill="#D31243" d="M286.14,39.945c0.236,0.648,0.473,0.826,1.121,0.826h1.18c0.945,0,1.476,0.471,1.476,1.357
			c0,0.826-0.53,1.297-1.476,1.297h-9.264c-0.943,0-1.475-0.471-1.475-1.357c0-0.826,0.531-1.297,1.475-1.297h2.42
			c0.648,0,1.062-0.355,1.062-0.885c0-0.178-0.059-0.414-0.118-0.65l-3.305-9.027c-0.235-0.648-0.471-0.826-1.121-0.826h-14.751
			c-0.649,0-0.885,0.178-1.121,0.826l-3.304,9.027c-0.119,0.236-0.178,0.531-0.178,0.65c0,0.529,0.414,0.885,1.121,0.885h2.42
			c0.943,0,1.475,0.471,1.475,1.357c0,0.826-0.531,1.297-1.475,1.297h-9.028c-0.944,0-1.476-0.471-1.476-1.357
			c0-0.826,0.531-1.297,1.476-1.297h1.181c0.648,0,0.826-0.178,1.062-0.826l13.04-34.873c0.295-0.826,0.531-1.003,1.299-1.003h2.064
			c0.768,0,1.004,0.177,1.299,1.003L286.14,39.945z M276.227,26.845c0.649,0,1.062-0.354,1.062-0.885c0-0.236-0.06-0.414-0.118-0.65
			l-5.547-15.93c-0.177-0.591-0.472-0.826-0.885-0.826s-0.708,0.295-0.885,0.826l-5.547,15.93c-0.059,0.236-0.118,0.473-0.118,0.65
			c0,0.531,0.413,0.885,1.062,0.885H276.227z"/>
		<path fill="#D31243" d="M297.583,35.873c0,2.893,0.117,3.658,0.648,4.543c0.473,0.826,1.534,1.357,2.537,1.357
			c1.416,0,2.42-0.885,2.892-2.537c0.236-0.766,0.236-0.885,0.354-2.242c0.059-0.766,0.531-1.297,1.18-1.297
			c0.768,0,1.18,0.59,1.18,1.77c0,1.121-0.354,2.596-1.002,3.775c-1.004,1.947-2.715,3.01-5.016,3.01
			c-4.072,0-5.96-2.654-5.96-8.379V19.646c0-0.826-0.295-1.18-1.062-1.18h-2.598c-0.825,0-1.297-0.473-1.297-1.239
			c0-0.708,0.472-1.181,1.297-1.181h2.598c0.767,0,1.062-0.354,1.062-1.18v-3.718c0-1.239,0.59-1.947,1.593-1.947
			c1.004,0,1.594,0.708,1.594,1.947v3.718c0,0.826,0.295,1.18,1.062,1.18h5.665c0.826,0,1.298,0.413,1.298,1.239
			c0,0.768-0.472,1.181-1.298,1.181h-5.665c-0.767,0-1.062,0.354-1.062,1.18V35.873z"/>
		<path fill="#D31243" d="M315.932,39.826c0,0.826,0.295,1.182,1.062,1.182h2.065c0.826,0,1.298,0.471,1.298,1.238
			c0,0.709-0.472,1.18-1.298,1.18h-9.44c-0.826,0-1.299-0.471-1.299-1.238c0-0.709,0.473-1.18,1.299-1.18h2.064
			c0.768,0,1.062-0.355,1.062-1.182V7.668c0-0.826-0.295-1.18-1.062-1.18h-2.064c-0.826,0-1.299-0.472-1.299-1.239
			c0-0.708,0.473-1.18,1.299-1.18h4.896c1.004,0,1.417,0.413,1.417,1.416V39.826z"/>
		<path fill="#D31243" d="M341.598,37.644c-1.829,4.66-4.603,6.607-9.323,6.607c-5.487,0-8.851-3.186-8.851-8.32
			c0-3.48,1.534-6.135,4.308-7.492c1.947-1.004,4.721-1.416,9.086-1.416l2.773,0.059c0.414,0.059,0.826,0.059,0.945,0.059
			c0.648,0,1.062-0.354,1.062-1.004V25.96c0-3.835-0.354-5.075-1.712-6.432c-1.238-1.298-2.832-1.829-5.311-1.829
			c-4.189,0-6.667,1.889-7.139,5.546c-0.118,0.943-0.709,1.535-1.476,1.535c-0.826,0-1.476-0.768-1.476-1.712
			c0-2.419,1.889-5.311,4.249-6.549c1.593-0.886,3.599-1.299,6.137-1.299c3.776,0,6.372,1.004,8.083,3.187
			c1.416,1.771,1.83,3.54,1.83,7.495v13.865c0,0.885,0.295,1.24,1.062,1.24h1.77c0.826,0,1.298,0.412,1.298,1.18
			s-0.472,1.238-1.298,1.238h-4.603c-1.003,0-1.416-0.412-1.416-1.416V37.644z M326.787,35.814c0,3.717,2.302,5.959,6.196,5.959
			c3.244,0,5.723-1.416,7.08-4.07c0.708-1.299,1.416-5.016,1.416-7.258c0-0.354-0.177-0.709-0.473-0.885
			c-0.176-0.119-2.418-0.236-4.543-0.236C329.915,29.324,326.787,31.447,326.787,35.814z"/>
		<path fill="#D31243" d="M369.21,17.641c0-1.004,0.472-1.594,1.297-1.594c0.826,0,1.299,0.59,1.299,1.594v6.431
			c0,1.004-0.413,1.594-1.121,1.594c-0.413,0-0.826-0.295-1.003-0.65c-0.118-0.295-0.118-0.295-0.177-1.77
			c-0.236-3.186-3.188-5.488-7.081-5.488c-3.895,0-6.491,2.125-6.491,5.311c0,2.597,1.535,4.13,4.604,4.603l3.127,0.531
			c3.835,0.648,5.369,1.238,6.785,2.715c1.18,1.238,1.83,3.008,1.83,5.014c0,5.016-3.777,8.32-9.5,8.32
			c-4.189,0-6.551-1.475-8.202-4.957v2.539c0,1.002-0.472,1.592-1.298,1.592s-1.299-0.59-1.299-1.592V35.46
			c0-1.062,0.413-1.652,1.18-1.652c0.591,0,1.004,0.412,1.121,1.238c0.826,4.426,3.363,6.727,7.494,6.727
			c4.013,0,6.845-2.301,6.845-5.545c0-1.83-0.885-3.482-2.36-4.189c-0.531-0.297-1.652-0.592-2.891-0.826l-3.187-0.473
			c-2.538-0.414-3.954-0.885-5.134-1.711c-1.711-1.24-2.715-3.246-2.715-5.725c0-4.779,3.777-8.083,9.205-8.083
			c3.777,0,5.9,1.239,7.672,4.367V17.641z"/>
	</g>
</g>
</svg>
