<?xml version="1.0" encoding="utf-8"?>
<!-- Generator: Adobe Illustrator 16.0.0, SVG Export Plug-In . SVG Version: 6.00 Build 0)  -->
<!DOCTYPE svg PUBLIC "-//W3C//DTD SVG 1.1//EN" "http://www.w3.org/Graphics/SVG/1.1/DTD/svg11.dtd">
<svg version="1.1" id="Layer_1" xmlns="http://www.w3.org/2000/svg" xmlns:xlink="http://www.w3.org/1999/xlink" x="0px" y="0px"
	 width="383.889px" height="45.425px" viewBox="0 0 383.889 45.425" enable-background="new 0 0 383.889 45.425"
	 xml:space="preserve">
<g>
	<g>
		<g>
			<polygon fill="#FFFFFF" points="125.138,10.435 125.138,3.645 96.812,3.645 96.812,44.39 125.138,44.39 125.138,37.596 
				103.601,37.596 103.601,27.414 124.099,27.414 124.099,20.623 103.601,20.623 103.601,10.435 			"/>
			<polygon fill="#FFFFFF" points="146.156,44.39 146.156,3.646 152.948,3.646 152.948,37.596 172.539,37.596 172.539,44.39 			"/>
			<polygon fill="#FFFFFF" points="178.074,44.39 178.074,3.646 184.866,3.646 184.866,37.596 204.455,37.596 204.455,44.39 			"/>
			<rect x="132.265" y="3.646" fill="#FFFFFF" width="6.789" height="40.744"/>
			<path fill="#FFFFFF" d="M12.017,13.995c-2.615,2.626-4.223,6.213-4.225,10.208c0.002,3.998,1.609,7.582,4.225,10.203
				c2.624,2.617,6.211,4.229,10.208,4.229c3.993,0,7.579-1.611,10.202-4.229c2.618-2.621,4.225-6.205,4.225-10.203
				c0-3.994-1.606-7.581-4.225-10.208c-2.623-2.613-6.209-4.218-10.202-4.219C18.228,9.777,14.64,11.382,12.017,13.995 M1,24.203
				C1.003,12.481,10.5,2.984,22.225,2.981c11.721,0.003,21.217,9.5,21.221,21.222c-0.003,11.721-9.5,21.219-21.221,21.223
				C10.5,45.421,1.003,35.923,1,24.203"/>
			<path fill="#FFFFFF" d="M64.435,20.623V10.435h13.679c2.812,0.002,5.092,2.277,5.096,5.095c-0.004,2.807-2.283,5.084-5.096,5.092
				L64.435,20.623L64.435,20.623z M81.523,26.91c4.9-1.473,8.477-6,8.477-11.378c0-6.567-5.318-11.883-11.886-11.884H57.643V44.39
				h6.792V27.414h9.458L84.139,44.39h7.92L81.523,26.91z"/>
			<path fill="#FFFFFF" d="M52.831,7.98c0,2.759-2.238,4.999-4.997,4.999c-2.764,0-5.001-2.24-5.001-4.999c0-2.76,2.238-5,5.001-5
				C50.593,2.981,52.831,5.22,52.831,7.98"/>
			<polygon fill="#FFFFFF" points="234.731,3.646 226.479,3.646 216.027,18.771 205.574,3.646 197.321,3.646 212.623,25.798 
				212.623,44.39 219.418,44.39 219.418,25.812 			"/>
			<g>
				<path fill="#FFFFFF" d="M243.347,12.023c-2.323,0-4.203-1.883-4.203-4.201c0-2.323,1.88-4.207,4.203-4.207
					c2.316,0,4.201,1.884,4.201,4.207C247.548,10.14,245.663,12.023,243.347,12.023 M243.347,2.816
					c-2.767,0-5.008,2.241-5.008,5.006c0,2.762,2.241,5.003,5.008,5.003c2.759,0,5.002-2.241,5.002-5.003
					C248.349,5.058,246.106,2.816,243.347,2.816"/>
				<path fill="#FFFFFF" d="M242.133,6.084h1.973c0.354,0,0.636,0.282,0.639,0.638c-0.003,0.353-0.283,0.638-0.639,0.638h-1.973
					V6.084z M245.591,6.722c0-0.824-0.662-1.488-1.485-1.488h-2.815v5.1h0.844V8.208h1.432l1.022,2.125h0.943l-1.046-2.174
					C245.124,7.994,245.591,7.413,245.591,6.722"/>
			</g>
		</g>
	</g>
	<text transform="matrix(1 0 0 1 251.4446 44.4253)" fill="#FFFFFF" font-family="'URWTypewriterTOT-LigExtNar'" font-size="59">Atlas</text>
</g>
</svg>
