<?xml version="1.0" encoding="utf-8"?>
<!-- Generator: Adobe Illustrator 16.0.0, SVG Export Plug-In . SVG Version: 6.00 Build 0)  -->
<!DOCTYPE svg PUBLIC "-//W3C//DTD SVG 1.1//EN" "http://www.w3.org/Graphics/SVG/1.1/DTD/svg11.dtd">
<svg version="1.1" id="Layer_1" xmlns="http://www.w3.org/2000/svg" xmlns:xlink="http://www.w3.org/1999/xlink" x="0px" y="0px"
	 width="383.889px" height="45.425px" viewBox="0 0 383.889 45.425" enable-background="new 0 0 383.889 45.425"
	 xml:space="preserve">
<g>
	<path fill="#FFFFFF" d="M0,23.442c0,11.552,8.805,21.854,22.729,21.854c14.423,0,23.04-10.365,23.04-21.854
		c0-11.865-8.866-21.855-22.915-21.855C9.053,1.587,0,11.64,0,23.442L0,23.442z M6.306,23.442c0-9.367,7.056-16.235,16.546-16.235
		c9.553,0,16.607,6.868,16.607,16.235c0,9.304-7.057,16.231-16.607,16.231C13.362,39.675,6.306,32.746,6.306,23.442L6.306,23.442z"
		/>
	<path fill="#FFFFFF" d="M50.265,19.071c5.807-0.937,7.556-3.934,7.556-9.491V2.15h-7.556v8.117h3.996
		c0.188,3.809-1.312,5.557-3.996,5.932V19.071L50.265,19.071z"/>
	<path fill="#FFFFFF" d="M64.229,2.149v42.584h6.119V26.251h2.561c3.121,0,5.682,1,11.301,9.74l5.619,8.74h7.306
		c-2.935-4.061-3.995-5.492-5.807-8.432c-3.247-5.307-5.62-9.238-9.491-11.801c4.559-1.811,7.118-5.495,7.118-10.426
		c0-7.368-5.37-11.926-13.986-11.926L64.229,2.149L64.229,2.149z M70.349,7.395h3.935c5.932,0,8.304,2.435,8.365,6.431
		c0.062,3.559-1.812,6.931-8.365,6.931h-3.935V7.395L70.349,7.395z"/>
	<polygon fill="#FFFFFF" points="124.184,2.149 100.02,2.149 100.02,44.733 124.745,44.733 124.745,39.24 106.139,39.24 
		106.139,26.001 123.56,26.001 123.56,20.507 106.139,20.507 106.139,7.644 124.184,7.644 	"/>
	<polygon fill="#FFFFFF" points="136.699,2.149 130.58,2.149 130.58,44.733 136.699,44.733 	"/>
	<polygon fill="#FFFFFF" points="149.073,2.149 142.954,2.149 142.954,44.733 168.305,44.733 168.305,39.24 149.073,39.24 	"/>
	<polygon fill="#FFFFFF" points="178.445,2.149 172.326,2.149 172.326,44.733 197.677,44.733 197.677,39.24 178.445,39.24 	"/>
	<polygon fill="#FFFFFF" points="209.415,16.823 197.988,2.15 190.621,2.15 206.418,22.192 206.418,44.732 212.537,44.732 
		212.537,22.255 228.334,2.15 220.966,2.15 	"/>
</g>
<g>
	<path fill="#FFFFFF" d="M255.698,32.699l-3.654,12.033h-8.001L257.65,2.268h9.893l13.798,42.464h-8.315l-3.843-12.033H255.698z
		 M267.857,26.839l-3.34-10.458c-0.817-2.583-1.513-5.481-2.143-7.938h-0.126c-0.63,2.457-1.261,5.418-2.018,7.938l-3.274,10.458
		H267.857z"/>
	<path fill="#FFFFFF" d="M293.308,5.292v8.758h7.371v5.796h-7.371v13.545c0,3.717,1.008,5.67,3.969,5.67
		c1.323,0,2.331-0.188,3.023-0.377l0.126,5.922c-1.134,0.44-3.149,0.756-5.606,0.756c-2.835,0-5.229-0.944-6.679-2.521
		c-1.639-1.764-2.395-4.536-2.395-8.567V19.846h-4.41V14.05h4.41V7.119L293.308,5.292z"/>
	<path fill="#FFFFFF" d="M306.222,0h7.812v44.732h-7.812V0z"/>
	<path fill="#FFFFFF" d="M339.675,44.732l-0.504-3.402h-0.188c-1.892,2.396-5.104,4.096-9.072,4.096
		c-6.175,0-9.641-4.473-9.641-9.135c0-7.75,6.868-11.656,18.209-11.594v-0.504c0-2.016-0.818-5.355-6.237-5.355
		c-3.023,0-6.175,0.945-8.254,2.268l-1.512-5.04c2.269-1.386,6.236-2.709,11.088-2.709c9.829,0,12.664,6.238,12.664,12.916V37.36
		c0,2.772,0.126,5.481,0.44,7.372H339.675z M338.667,29.737c-5.48-0.126-10.711,1.071-10.711,5.733c0,3.023,1.953,4.41,4.411,4.41
		c3.087,0,5.354-2.016,6.048-4.221c0.188-0.568,0.252-1.197,0.252-1.701V29.737L338.667,29.737z"/>
	<path fill="#FFFFFF" d="M353.408,37.612c1.764,1.072,5.104,2.206,7.875,2.206c3.401,0,4.915-1.386,4.915-3.402
		c0-2.078-1.262-3.148-5.041-4.474c-5.985-2.077-8.506-5.354-8.442-8.946c0-5.418,4.475-9.64,11.594-9.64
		c3.401,0,6.362,0.882,8.128,1.827l-1.514,5.481c-1.322-0.756-3.779-1.764-6.488-1.764c-2.771,0-4.284,1.323-4.284,3.213
		c0,1.953,1.449,2.898,5.354,4.284c5.544,2.017,8.127,4.851,8.189,9.388c0,5.545-4.348,9.576-12.475,9.576
		c-3.719,0-7.058-0.882-9.324-2.143L353.408,37.612z"/>
	<path fill="#FFFFFF" d="M376.586,5.604v0.944h-1.825v4.763h-1.133V6.548h-1.825V5.604H376.586z M382.754,11.311l-0.209-3.357
		c-0.021-0.441-0.021-0.986-0.042-1.595h-0.062c-0.146,0.503-0.313,1.175-0.481,1.699l-1.027,3.168h-1.176l-1.027-3.252
		c-0.104-0.441-0.271-1.112-0.397-1.616h-0.062c0,0.524-0.021,1.07-0.042,1.595l-0.21,3.357h-1.092l0.419-5.707h1.7l0.984,2.791
		c0.126,0.44,0.23,0.86,0.378,1.448h0.021c0.146-0.524,0.272-1.007,0.398-1.427l0.985-2.812h1.636l0.441,5.707L382.754,11.311
		L382.754,11.311z"/>
</g>
</svg>
